<svg width="26" height="26" viewBox="0 0 26 26" fill="none" xmlns="http://www.w3.org/2000/svg">
<path fill-rule="evenodd" clip-rule="evenodd" d="M13 24C15.5846 24 17.961 23.1086 19.8385 21.6165C15.7798 18.4287 10.0586 18.3514 5.91658 21.4161C7.83031 23.0285 10.3017 24 13 24ZM4.49857 19.9809C9.45349 16.1481 16.446 16.2422 21.297 20.2224C22.9805 18.2901 24 15.7641 24 13C24 6.92487 19.0751 2 13 2C6.92487 2 2 6.92487 2 13C2 15.6504 2.93733 18.0818 4.49857 19.9809ZM13 26C20.1797 26 26 20.1797 26 13C26 5.8203 20.1797 0 13 0C5.8203 0 0 5.8203 0 13C0 20.1797 5.8203 26 13 26ZM16 11C16 12.6569 14.6569 14 13 14C11.3431 14 10 12.6569 10 11C10 9.34315 11.3431 8 13 8C14.6569 8 16 9.34315 16 11ZM18 11C18 13.7614 15.7614 16 13 16C10.2386 16 8 13.7614 8 11C8 8.23858 10.2386 6 13 6C15.7614 6 18 8.23858 18 11Z" fill="#86868A"/>
</svg>
