<svg width="22" height="21" viewBox="0 0 22 21" fill="none" xmlns="http://www.w3.org/2000/svg">
<path d="M0 6.68605C0 11.4017 3.95468 16.0399 10.2024 20.0249C10.435 20.1688 10.7674 20.3238 11 20.3238C11.2326 20.3238 11.565 20.1688 11.8087 20.0249C18.0453 16.0399 22 11.4017 22 6.68605C22 2.7674 19.3082 0 15.719 0C13.6697 0 12.0081 0.974126 11 2.46852C10.0141 0.985196 8.33031 0 6.28097 0C2.69184 0 0 2.7674 0 6.68605ZM1.78348 6.68605C1.78348 3.74153 3.68882 1.78221 6.25881 1.78221C8.34139 1.78221 9.53776 3.07735 10.2467 4.18431C10.5458 4.6271 10.7341 4.74886 11 4.74886C11.2659 4.74886 11.432 4.61603 11.7533 4.18431C12.5176 3.09949 13.6697 1.78221 15.7412 1.78221C18.3112 1.78221 20.2165 3.74153 20.2165 6.68605C20.2165 10.8039 15.863 15.2429 11.2326 18.3202C11.1219 18.3977 11.0443 18.453 11 18.453C10.9557 18.453 10.8781 18.3977 10.7784 18.3202C6.13696 15.2429 1.78348 10.8039 1.78348 6.68605Z" fill="#3C3C43" fill-opacity="0.6"/>
</svg>
