<svg width="24" height="35" viewBox="0 0 24 35" fill="none" xmlns="http://www.w3.org/2000/svg">
<path d="M12 16.6667C10.895 16.6667 9.83516 16.2277 9.05376 15.4463C8.27236 14.6649 7.83337 13.6051 7.83337 12.5C7.83337 11.3949 8.27236 10.3351 9.05376 9.55373C9.83516 8.77233 10.895 8.33334 12 8.33334C13.1051 8.33334 14.1649 8.77233 14.9463 9.55373C15.7277 10.3351 16.1667 11.3949 16.1667 12.5C16.1667 13.0472 16.0589 13.589 15.8495 14.0945C15.6401 14.6 15.3332 15.0594 14.9463 15.4463C14.5594 15.8332 14.1001 16.1401 13.5946 16.3495C13.089 16.5589 12.5472 16.6667 12 16.6667ZM12 0.833344C8.90585 0.833344 5.93839 2.06251 3.75046 4.25043C1.56254 6.43835 0.333374 9.40582 0.333374 12.5C0.333374 21.25 12 34.1667 12 34.1667C12 34.1667 23.6667 21.25 23.6667 12.5C23.6667 9.40582 22.4375 6.43835 20.2496 4.25043C18.0617 2.06251 15.0942 0.833344 12 0.833344Z" fill="#7592DD"/>
</svg>
