<svg width="30" height="30" viewBox="0 0 30 30" fill="none" xmlns="http://www.w3.org/2000/svg">
<path d="M15 25.5625C14.8162 25.5643 14.6367 25.5074 14.4875 25.4C14.1125 25.1625 5.3125 19.25 5.3125 12.0625C5.3125 9.49322 6.33314 7.02916 8.1499 5.2124C9.96666 3.39564 12.4307 2.375 15 2.375C17.5693 2.375 20.0333 3.39564 21.8501 5.2124C23.6669 7.02916 24.6875 9.49322 24.6875 12.0625C24.6875 19.25 15.9375 25.1625 15.5125 25.4C15.3633 25.5074 15.1838 25.5643 15 25.5625ZM15 4.3125C12.9368 4.30585 10.9552 5.11824 9.49048 6.5713C8.0257 8.02435 7.19742 9.99929 7.1875 12.0625C7.1875 17.325 13.175 22.1375 15 23.475C16.825 22.1375 22.8125 17.325 22.8125 12.0625C22.8026 9.99929 21.9743 8.02435 20.5095 6.5713C19.0448 5.11824 17.0632 4.30585 15 4.3125Z" fill="#86868A"/>
<path d="M15 14.9375C14.3201 14.9375 13.6555 14.7359 13.0902 14.3582C12.5249 13.9805 12.0843 13.4436 11.8242 12.8155C11.564 12.1874 11.4959 11.4962 11.6286 10.8294C11.7612 10.1626 12.0886 9.55006 12.5693 9.06932C13.0501 8.58858 13.6626 8.26119 14.3294 8.12855C14.9962 7.99592 15.6874 8.06399 16.3155 8.32417C16.9436 8.58434 17.4805 9.02494 17.8582 9.59023C18.2359 10.1555 18.4375 10.8201 18.4375 11.5C18.4375 12.4117 18.0753 13.286 17.4307 13.9307C16.786 14.5753 15.9117 14.9375 15 14.9375ZM15 9.9375C14.691 9.9375 14.3889 10.0291 14.1319 10.2008C13.875 10.3725 13.6747 10.6165 13.5564 10.9021C13.4382 11.1876 13.4072 11.5017 13.4675 11.8048C13.5278 12.1079 13.6766 12.3863 13.8951 12.6049C14.1137 12.8234 14.3921 12.9722 14.6952 13.0325C14.9983 13.0928 15.3124 13.0618 15.5979 12.9436C15.8835 12.8253 16.1275 12.625 16.2992 12.3681C16.4709 12.1111 16.5625 11.809 16.5625 11.5C16.5625 11.0856 16.3979 10.6882 16.1049 10.3951C15.8118 10.1021 15.4144 9.9375 15 9.9375Z" fill="#86868A"/>
</svg>
