<svg width="28" height="22" viewBox="0 0 28 22" fill="none" xmlns="http://www.w3.org/2000/svg">
<path d="M5.5625 6.375C5.31386 6.375 5.0754 6.47377 4.89959 6.64959C4.72377 6.8254 4.625 7.06386 4.625 7.3125C4.625 7.56114 4.72377 7.7996 4.89959 7.97541C5.0754 8.15123 5.31386 8.25 5.5625 8.25H18.6875C18.9361 8.25 19.1746 8.15123 19.3504 7.97541C19.5262 7.7996 19.625 7.56114 19.625 7.3125C19.625 7.06386 19.5262 6.8254 19.3504 6.64959C19.1746 6.47377 18.9361 6.375 18.6875 6.375H5.5625ZM5.5625 10.125C5.31386 10.125 5.0754 10.2238 4.89959 10.3996C4.72377 10.5754 4.625 10.8139 4.625 11.0625V14.8125C4.625 15.0611 4.72377 15.2996 4.89959 15.4754C5.0754 15.6512 5.31386 15.75 5.5625 15.75H9.3125C9.56114 15.75 9.7996 15.6512 9.97541 15.4754C10.1512 15.2996 10.25 15.0611 10.25 14.8125V11.0625C10.25 10.8139 10.1512 10.5754 9.97541 10.3996C9.7996 10.2238 9.56114 10.125 9.3125 10.125H5.5625ZM6.5 13.875V12H8.375V13.875H6.5ZM13.0625 10.125C12.8139 10.125 12.5754 10.2238 12.3996 10.3996C12.2238 10.5754 12.125 10.8139 12.125 11.0625C12.125 11.3111 12.2238 11.5496 12.3996 11.7254C12.5754 11.9012 12.8139 12 13.0625 12H18.6875C18.9361 12 19.1746 11.9012 19.3504 11.7254C19.5262 11.5496 19.625 11.3111 19.625 11.0625C19.625 10.8139 19.5262 10.5754 19.3504 10.3996C19.1746 10.2238 18.9361 10.125 18.6875 10.125H13.0625ZM13.0625 13.875C12.8139 13.875 12.5754 13.9738 12.3996 14.1496C12.2238 14.3254 12.125 14.5639 12.125 14.8125C12.125 15.0611 12.2238 15.2996 12.3996 15.4754C12.5754 15.6512 12.8139 15.75 13.0625 15.75H18.6875C18.9361 15.75 19.1746 15.6512 19.3504 15.4754C19.5262 15.2996 19.625 15.0611 19.625 14.8125C19.625 14.5639 19.5262 14.3254 19.3504 14.1496C19.1746 13.9738 18.9361 13.875 18.6875 13.875H13.0625ZM0.875 4.5C0.875 3.50544 1.27009 2.55161 1.97335 1.84835C2.67661 1.14509 3.63044 0.75 4.625 0.75H19.625C20.6196 0.75 21.5734 1.14509 22.2766 1.84835C22.9799 2.55161 23.375 3.50544 23.375 4.5C24.3696 4.5 25.3234 4.89509 26.0266 5.59835C26.7299 6.30161 27.125 7.25544 27.125 8.25V16.6875C27.125 17.9307 26.6311 19.123 25.7521 20.0021C24.873 20.8811 23.6807 21.375 22.4375 21.375H5.5625C4.3193 21.375 3.12701 20.8811 2.24794 20.0021C1.36886 19.123 0.875 17.9307 0.875 16.6875V4.5ZM22.4375 16.6875C22.1889 16.6875 21.9504 16.5887 21.7746 16.4129C21.5988 16.2371 21.5 15.9986 21.5 15.75V4.5C21.5 4.00272 21.3025 3.52581 20.9508 3.17417C20.5992 2.82254 20.1223 2.625 19.625 2.625H4.625C4.12772 2.625 3.65081 2.82254 3.29917 3.17417C2.94754 3.52581 2.75 4.00272 2.75 4.5V16.6875C2.75 17.4334 3.04632 18.1488 3.57376 18.6762C4.10121 19.2037 4.81658 19.5 5.5625 19.5H22.4375C23.1834 19.5 23.8988 19.2037 24.4262 18.6762C24.9537 18.1488 25.25 17.4334 25.25 16.6875V8.25C25.25 7.75272 25.0525 7.27581 24.7008 6.92418C24.3492 6.57254 23.8723 6.375 23.375 6.375V15.75C23.375 15.9986 23.2762 16.2371 23.1004 16.4129C22.9246 16.5887 22.6861 16.6875 22.4375 16.6875Z" fill="#7592DD"/>
</svg>
